<svg width="200" height="auto" viewBox="0 0 146 53" fill="none" xmlns="http://www.w3.org/2000/svg">
<path d="M52.0295 26.5126C52.0228 23.8274 50.9531 21.2541 49.0544 19.3554C47.1557 17.4567 44.5824 16.387 41.8972 16.3803C38.8321 16.3803 36.2188 17.9761 34.4204 20.1335C32.6177 17.9761 30.0086 16.3803 26.9436 16.3803C24.2587 16.3881 21.686 17.4581 19.7875 19.3566C17.889 21.2551 16.819 23.8278 16.8112 26.5126C16.8112 29.6705 19.5554 34.6227 25.7108 42.5555C25.8953 42.8325 26.1348 43.0686 26.4144 43.2491C26.694 43.4296 27.0077 43.5507 27.3361 43.6049C27.6644 43.6591 28.0004 43.6451 28.3232 43.564C28.646 43.4828 28.9486 43.3361 29.2123 43.1331C29.476 42.93 29.6951 42.6749 29.856 42.3836C30.0169 42.0923 30.1163 41.771 30.1478 41.4396C30.1793 41.1083 30.1424 40.7741 30.0393 40.4576C29.9361 40.1412 29.7691 39.8493 29.5484 39.6002C22.2362 30.156 21.6663 27.2008 21.6663 26.5126C21.6685 25.1096 22.2272 23.7648 23.2196 22.7731C24.2121 21.7814 25.5574 21.2238 26.9604 21.2227C28.2492 21.2771 29.4638 21.8404 30.3379 22.789C31.0203 23.4892 31.5507 24.3228 31.8957 25.2376C32.0013 25.5247 32.0604 25.8245 32.1701 26.1073C32.4064 26.6965 32.8598 27.1725 33.4367 27.4372C33.7543 27.5765 34.0981 27.6461 34.4449 27.6416C34.7917 27.637 35.1336 27.5583 35.4475 27.4108C35.7613 27.2632 36.04 27.0502 36.2648 26.7861C36.4896 26.522 36.6553 26.2128 36.7508 25.8794C36.919 25.2654 37.1645 24.6753 37.4812 24.1231C38.1295 22.9776 39.1284 22.0704 40.3309 21.5351C40.8243 21.3342 41.3517 21.2296 41.8845 21.2269C43.2871 21.228 44.632 21.7857 45.6238 22.7775C46.6156 23.7694 47.1733 25.1142 47.1744 26.5168C47.1744 26.5717 47.1744 26.6224 47.1744 26.6773C47.1744 26.7322 47.1744 26.7828 47.1744 26.8377C47.1744 31.0219 45.9337 35.112 43.6091 38.591C41.2845 42.07 37.9805 44.7816 34.1148 46.3828C30.2492 47.984 25.9955 48.4029 21.8918 47.5866C17.788 46.7704 14.0185 44.7555 11.0598 41.7969C8.10118 38.8382 6.08633 35.0687 5.27004 30.9649C4.45375 26.8612 4.87269 22.6075 6.4739 18.7419C8.0751 14.8762 10.7867 11.5722 14.2656 9.2476C17.7446 6.92301 21.8348 5.68228 26.019 5.68228C30.8603 5.6613 35.5589 7.32051 39.3134 10.3769C39.5604 10.585 39.8463 10.7417 40.1546 10.8378C40.4628 10.934 40.7871 10.9677 41.1086 10.937C41.43 10.9063 41.7421 10.8117 42.0265 10.6589C42.311 10.5061 42.5621 10.298 42.7651 10.047C42.9681 9.79589 43.119 9.50684 43.209 9.19672C43.299 8.88661 43.3261 8.56167 43.289 8.24092C43.2518 7.92017 43.151 7.61006 42.9925 7.32875C42.8339 7.04744 42.6209 6.80058 42.3658 6.60262C37.7764 2.89392 32.0625 0.855597 26.162 0.822194C20.2615 0.788792 14.5249 2.76229 9.89386 6.4188C5.26276 10.0753 2.01229 15.1976 0.67596 20.9448C-0.660372 26.6921 -0.00317468 32.723 2.53968 38.0475C5.08254 43.3721 9.35998 47.674 14.6699 50.2472C19.9799 52.8204 26.0069 53.512 31.7617 52.2085C37.5165 50.905 42.6573 47.6838 46.3401 43.0737C50.023 38.4635 52.0292 32.7383 52.0295 26.8377C52.0295 26.7828 52.0295 26.7322 52.0295 26.6773C52.0295 26.6224 52.0295 26.5675 52.0295 26.5126Z" fill="#FF5724"/>
<path d="M110.704 8.16029L109.163 11.0142C108.759 10.7185 108.27 10.5615 107.77 10.5667C105.769 10.5329 104.511 11.9937 104.511 15.4767V23.4601H100.998V7.56501H104.063L104.274 9.70968C104.619 8.9618 105.173 8.3294 105.869 7.88833C106.564 7.44726 107.373 7.21626 108.196 7.22305C109.112 7.25143 109.994 7.58081 110.704 8.16029Z" fill="#254954"/>
<path d="M77.7571 9.9253C77.4842 8.79876 76.8549 7.79042 75.9628 7.05026C75.0128 6.26927 73.8151 5.85308 72.5854 5.8766C71.4548 5.86253 70.3455 6.18431 69.398 6.80117C68.4341 7.4392 67.6643 8.33016 67.1731 9.37647C66.6375 10.5612 66.3605 11.8464 66.3605 13.1465C66.3605 14.4467 66.6375 15.7319 67.1731 16.9166C67.6815 17.9724 68.4757 18.8646 69.4655 19.4919C70.4728 20.1149 71.6376 20.4358 72.8218 20.4165C74.1535 20.4761 75.4629 20.0601 76.5159 19.2428C77.4528 18.4388 78.0638 17.3203 78.2342 16.0976H74.0124V13.0283H82.1267V13.1296C82.235 15.0587 81.915 16.9878 81.1894 18.7784C80.5415 20.3237 79.4194 21.6231 77.9851 22.4894C76.4112 23.3878 74.6207 23.8361 72.8092 23.7855C70.9715 23.8112 69.1616 23.3354 67.5741 22.4092C66.0395 21.4968 64.7827 20.1831 63.9392 18.6095C63.0749 16.9167 62.6243 15.043 62.6243 13.1423C62.6243 11.2416 63.0749 9.36795 63.9392 7.67509C64.777 6.10815 66.0303 4.80229 67.5615 3.9008C69.1469 2.98243 70.9518 2.51115 72.7838 2.53715C74.157 2.52083 75.5167 2.80921 76.765 3.38151C77.9658 3.93444 79.02 4.76159 79.8427 5.79638C80.5926 6.74078 81.1207 7.84165 81.3878 9.01762L77.7571 9.9253Z" fill="#254954"/>
<path d="M95.3535 8.24501C94.1651 7.55006 92.8079 7.19653 91.4315 7.22334C90.0665 7.19688 88.7213 7.55219 87.5474 8.24924C86.4177 8.94537 85.5143 9.95437 84.9468 11.1538C84.3059 12.5136 83.9894 14.0036 84.0222 15.5065C83.9886 17.0117 84.2991 18.5048 84.9299 19.8719C85.499 21.0683 86.4041 22.0732 87.5348 22.7638C88.7289 23.4335 90.075 23.7852 91.4441 23.7852C92.8133 23.7852 94.1594 23.4335 95.3535 22.7638C96.4842 22.0732 97.3893 21.0683 97.9584 19.8719C98.5562 18.4934 98.8647 17.0069 98.8647 15.5044C98.8647 14.0019 98.5562 12.5154 97.9584 11.1369C97.3881 9.94131 96.4833 8.93675 95.3535 8.24501ZM91.4315 20.5811C90.892 20.5927 90.3575 20.4763 89.8717 20.2415C89.3859 20.0067 88.9627 19.6601 88.6367 19.2301C87.919 18.3267 87.5517 17.0728 87.5517 15.5065C87.5517 13.9402 87.919 12.7075 88.6367 11.7913C88.9606 11.3583 89.3831 11.0087 89.8692 10.7716C90.3552 10.5344 90.8908 10.4165 91.4315 10.4277C91.9776 10.4118 92.5197 10.526 93.013 10.7609C93.5063 10.9958 93.9367 11.3446 94.2685 11.7787C94.9736 12.6821 95.3367 13.936 95.3367 15.5065C95.3367 17.077 94.9736 18.3267 94.2685 19.2301C93.9367 19.6642 93.5063 20.013 93.013 20.2479C92.5197 20.4828 91.9776 20.597 91.4315 20.5811Z" fill="#254954"/>
<path d="M121.942 21.1807L122.166 23.4605H125.252V2.8623H121.748V9.54542C121.288 8.87824 120.683 8.32282 119.979 7.92002C119.177 7.45542 118.264 7.21485 117.336 7.22343C116.072 7.20598 114.831 7.56771 113.773 8.26199C112.705 8.98836 111.862 10.0008 111.342 11.1835C110.763 12.5537 110.466 14.0258 110.466 15.5129C110.466 17.0001 110.763 18.4722 111.342 19.8424C111.864 21.0237 112.708 22.0345 113.778 22.7596C114.831 23.4462 116.066 23.8034 117.324 23.7855C118.303 23.7945 119.265 23.5299 120.102 23.0214C120.857 22.5684 121.489 21.9362 121.942 21.1807ZM121.748 15.5066C121.812 16.8219 121.442 18.1216 120.693 19.2049C120.381 19.6388 119.97 19.9907 119.492 20.2304C119.015 20.4701 118.487 20.5905 117.953 20.5812C117.401 20.5956 116.854 20.4796 116.356 20.2426C115.858 20.0056 115.423 19.6544 115.086 19.2176C114.36 18.3057 113.993 17.056 113.993 15.5066C113.993 13.9572 114.36 12.7033 115.09 11.7788C115.424 11.3389 115.858 10.9846 116.356 10.7453C116.853 10.506 117.401 10.3885 117.953 10.4024C118.487 10.3924 119.015 10.5125 119.493 10.7522C119.97 10.992 120.382 11.3443 120.693 11.7788C121.394 12.6991 121.748 13.9361 121.748 15.5066Z" fill="#254954"/>
<path d="M130.285 28.3111H134.051L142.148 7.55249H138.437L134.473 17.651L130.538 7.55249H126.743L132.59 22.4597L130.285 28.3111Z" fill="#254954"/>
<path d="M77.2631 38.4306H67.1899V30.0925H63.576V50.6865H67.1899V41.694H77.2631V50.6865H80.877V30.0925H77.2631V38.4306Z" fill="#254954"/>
<path d="M94.4374 45.1348C94.268 45.9203 93.8176 46.6169 93.1708 47.0937C92.4755 47.5834 91.6398 47.8338 90.7897 47.8072C90.2292 47.8276 89.671 47.7248 89.1545 47.5059C88.6381 47.2871 88.1759 46.9576 87.8007 46.5406C87.0391 45.6532 86.5937 44.538 86.5342 43.3701H97.3884V43.2899C97.5089 42.6892 97.5726 42.0786 97.5784 41.466C97.5661 40.2623 97.2681 39.0786 96.7087 38.0126C96.1436 36.9429 95.2969 36.048 94.2601 35.4246C93.1095 34.7501 91.7938 34.4095 90.4605 34.441C89.0869 34.4193 87.7369 34.7993 86.5764 35.5344C85.4401 36.2702 84.5263 37.3022 83.9335 38.5192C83.2969 39.8344 82.976 41.28 82.9963 42.741C82.9753 44.2055 83.3069 45.6535 83.9631 46.9628C84.5815 48.1916 85.5285 49.2248 86.6988 49.9476C88.0297 50.7125 89.5487 51.088 91.0827 51.0313C92.6167 50.9746 94.1039 50.4879 95.3746 49.6268C96.0063 49.1729 96.5422 48.5987 96.9515 47.9373C97.3608 47.2758 97.6355 46.5401 97.7599 45.7723V45.671L94.3825 45.063L94.4374 45.1348ZM86.8381 40.4908C87.084 39.6725 87.5764 38.9501 88.2482 38.4221C88.9455 37.9004 89.7966 37.6256 90.6673 37.6411C91.5065 37.6128 92.3249 37.9057 92.9555 38.4601C93.5362 38.9831 93.8956 39.7078 93.9603 40.4866L86.8381 40.4908Z" fill="#254954"/>
<path d="M102.716 39.8198C102.868 39.1671 103.228 38.5816 103.742 38.1519C104.257 37.7222 104.897 37.4719 105.566 37.4388C106.474 37.3905 107.366 37.6928 108.057 38.2831C108.358 38.5736 108.596 38.9237 108.754 39.3112C108.913 39.6986 108.989 40.1149 108.977 40.5333H106.685C104.473 40.5333 102.733 41.0315 101.522 42.0152C100.31 42.9989 99.6851 44.4216 99.6851 46.237C99.656 46.8896 99.7694 47.5407 100.017 48.1451C100.265 48.7494 100.642 49.2926 101.121 49.7368C102.121 50.6128 103.418 51.0748 104.747 51.0287C105.702 51.0406 106.642 50.7956 107.47 50.3195C108.184 49.9153 108.782 49.3336 109.205 48.6307L109.425 50.7205H112.511V40.66C112.537 39.5217 112.245 38.3987 111.667 37.4176C111.083 36.466 110.235 35.7047 109.226 35.2265C108.088 34.691 106.841 34.4252 105.583 34.4497C103.972 34.4019 102.407 34.9938 101.23 36.0962C100.598 36.7123 100.101 37.4545 99.7738 38.2747C99.6359 38.6196 99.5327 38.9774 99.4656 39.3428L102.716 39.8198ZM104.084 44.1092C104.863 43.6289 105.772 43.4032 106.685 43.4633H108.977V44.0121C109.009 45.0496 108.686 46.0669 108.061 46.8956C107.784 47.2641 107.423 47.5613 107.008 47.7624C106.594 47.9636 106.137 48.063 105.676 48.0524C105.025 48.088 104.384 47.8837 103.873 47.4782C103.658 47.2928 103.487 47.0616 103.373 46.8015C103.259 46.5414 103.205 46.259 103.215 45.9752C103.193 45.6164 103.261 45.2577 103.412 44.9318C103.564 44.6059 103.795 44.3231 104.084 44.1092Z" fill="#254954"/>
<path d="M118.354 30.0886H114.85V50.6868H118.354V30.0886Z" fill="#254954"/>
<path d="M126.848 47.2882C126.741 47.1765 126.658 47.0439 126.604 46.8986C126.55 46.7533 126.527 46.5985 126.536 46.4439V37.8736H129.972V34.779H126.536V29.7129L123.002 31.2454V34.7833H120.389V37.8778H123.002V46.8661C122.975 47.3721 123.055 47.8781 123.237 48.3512C123.418 48.8243 123.697 49.2539 124.056 49.6122C124.414 49.9705 124.843 50.2495 125.317 50.431C125.79 50.6125 126.296 50.6924 126.802 50.6657H129.947L130.369 47.5711H127.663C127.515 47.5843 127.366 47.5658 127.225 47.5171C127.085 47.4683 126.956 47.3903 126.848 47.2882Z" fill="#254954"/>
<path d="M145.281 37.2319C144.816 36.3637 144.111 35.6482 143.25 35.1717C142.328 34.6805 141.297 34.432 140.252 34.4497C139.312 34.4349 138.387 34.6867 137.584 35.1759C136.892 35.6021 136.313 36.1886 135.895 36.8857V30.0886H132.391V50.6868H135.912V41.669C135.874 40.6314 136.2 39.613 136.833 38.7897C137.126 38.4203 137.502 38.125 137.93 37.9278C138.358 37.7305 138.827 37.6367 139.298 37.6541C139.727 37.6354 140.154 37.7052 140.555 37.8592C140.955 38.0132 141.319 38.2481 141.624 38.5491C141.926 38.8867 142.158 39.2804 142.308 39.7079C142.457 40.1353 142.52 40.588 142.494 41.04V50.6868H145.998V40.3603C146.023 39.274 145.777 38.1986 145.281 37.2319Z" fill="#254954"/>
</svg>
