<?xml version="1.0" encoding="UTF-8"?> <svg xmlns="http://www.w3.org/2000/svg" xmlns:xlink="http://www.w3.org/1999/xlink" width="200" height="auto" viewBox="0 0 294.144 33"><defs><clipPath id="clip-path"><rect id="Rectangle_1" data-name="Rectangle 1" width="253.563" height="29.328" fill="#071945"></rect></clipPath></defs><g id="Group_1071" data-name="Group 1071" transform="translate(-32 -24)"><g id="Group_9" data-name="Group 9" transform="translate(72.581 27.672)"><g id="Group_1" data-name="Group 1" transform="translate(0 0)" clip-path="url(#clip-path)"><path id="Path_1" data-name="Path 1" d="M1.866,0h1.5V1.6c0,1.167-.633,1.766-1.866,1.766H0v-1.6C0,.6.633,0,1.866,0M0,7.832C0,6.666.633,6.066,1.866,6.066h1.5V23h-1.5C.633,23,0,22.4,0,21.231Z" transform="translate(0 0)" fill="#071945"></path><path id="Path_2" data-name="Path 2" d="M18.145,19.565a2.407,2.407,0,0,0,1.6.567v1.533a1.27,1.27,0,0,1-1.033,1.4,2.193,2.193,0,0,1-1.7-.2A4.853,4.853,0,0,1,14.879,21a6.194,6.194,0,0,1-.9-3.433V1.767C13.979.6,14.612,0,15.845,0h1.5V17.564a2.516,2.516,0,0,0,.8,2" transform="translate(-6.214 0)" fill="#071945"></path><path id="Path_3" data-name="Path 3" d="M41.657,11.926a6.324,6.324,0,0,1,2.5,5.066V27.423h-1a2.067,2.067,0,0,1-1.9-1.366,7.358,7.358,0,0,1-5.2,1.866,8.5,8.5,0,0,1-5.6-1.966,6.263,6.263,0,0,1-2.5-5.033V16.991a6.325,6.325,0,0,1,2.5-5.066,8.5,8.5,0,0,1,5.6-1.966,8.633,8.633,0,0,1,5.6,1.967m-5.6,1.4a5.222,5.222,0,0,0-3.466,1.2,3.127,3.127,0,0,0-1.267,2.466v3.933a3.177,3.177,0,0,0,1.267,2.467,5.735,5.735,0,0,0,6.932,0,3.129,3.129,0,0,0,1.267-2.467V16.992a3.127,3.127,0,0,0-1.267-2.466,5.218,5.218,0,0,0-3.466-1.2" transform="translate(-12.428 -4.427)" fill="#071945"></path><path id="Path_4" data-name="Path 4" d="M84.388,12.686c0-1.167.633-1.766,1.866-1.766h1.5V21.351a7,7,0,0,1-1.8,5.1,6.656,6.656,0,0,1-5,1.9,6.478,6.478,0,0,1-5.1-2.166,7.294,7.294,0,0,1-10.1.267,7,7,0,0,1-1.8-5.1V12.686c0-1.167.633-1.766,1.866-1.766h1.5V21.351a3.821,3.821,0,0,0,.867,2.767,3.407,3.407,0,0,0,2.566.866,3.35,3.35,0,0,0,2.466-.9,3.78,3.78,0,0,0,.933-2.733V12.686c0-1.167.633-1.766,1.866-1.766h1.5V21.351a3.8,3.8,0,0,0,.967,2.733,3.35,3.35,0,0,0,2.466.9,3.459,3.459,0,0,0,2.566-.866,3.821,3.821,0,0,0,.867-2.767V12.686Z" transform="translate(-28.43 -4.854)" fill="#071945"></path><path id="Path_5" data-name="Path 5" d="M127.229,10.919l-6.6,18.6c-.167.433-.333.833-.5,1.267a5.561,5.561,0,0,1-.533,1.1,4.857,4.857,0,0,1-1.9,1.666,2.7,2.7,0,0,1-1.733.2,1.273,1.273,0,0,1-1-1.4V30.815a2.684,2.684,0,0,0,1.133-.267,1.366,1.366,0,0,0,.833-.833l.667-1.7a2.622,2.622,0,0,1-2.033-1.634L110.6,12.452a1.191,1.191,0,0,1,0-1.067.993.993,0,0,1,.967-.467h2.1l4.966,14h.033L123.2,12.185a1.752,1.752,0,0,1,1.766-1.267h2.266Z" transform="translate(-49.107 -4.853)" fill="#071945"></path><path id="Path_6" data-name="Path 6" d="M155.855,10.827a7.231,7.231,0,0,1,2.1,1.766,4.951,4.951,0,0,1,.933,2.933,4.928,4.928,0,0,1-.567,2.5,5.068,5.068,0,0,1-1.433,1.6,6.036,6.036,0,0,1-2.033.967,7.632,7.632,0,0,1-2.2.3h-4.066a3.075,3.075,0,0,1-.633-.033,1.319,1.319,0,0,1-.533-.267v1.4a2.126,2.126,0,0,0,1.2,1.9,4.759,4.759,0,0,0,2.3.667,6.79,6.79,0,0,0,2.433-.167,3.536,3.536,0,0,0,2.033-1.1,1.5,1.5,0,0,1,2-.3l1.633.8a5.969,5.969,0,0,1-1.266,1.866,6.9,6.9,0,0,1-2.866,1.733,9.507,9.507,0,0,1-3.3.533,11.776,11.776,0,0,1-2.6-.266,7.674,7.674,0,0,1-2.433-1.033,5.386,5.386,0,0,1-1.9-2.233,6.838,6.838,0,0,1-.6-2.9v-5.5a5.919,5.919,0,0,1,.567-2.466,5.8,5.8,0,0,1,2.833-2.733,8.845,8.845,0,0,1,3.933-.833,10.266,10.266,0,0,1,4.465.866m-1.233,6.3a1.8,1.8,0,0,0,.3-2.966,4.957,4.957,0,0,0-2.466-.833,10.156,10.156,0,0,0-2.566.2,4.035,4.035,0,0,0-1.7.8,2.053,2.053,0,0,0-.767,1.6v1.6h5.566a3.122,3.122,0,0,0,1.633-.4" transform="translate(-64.036 -4.428)" fill="#071945"></path><path id="Path_7" data-name="Path 7" d="M176.337,16.852a5.6,5.6,0,0,1,1.933-4.6,5.715,5.715,0,0,1,3.832-1.333h2.2v1.5c0,1.233-.567,1.866-1.733,1.866H182.1a2.339,2.339,0,0,0-2.4,2.566v11h-1.5c-1.233,0-1.866-.6-1.866-1.766V16.852Z" transform="translate(-78.384 -4.854)" fill="#071945"></path><path id="Path_8" data-name="Path 8" d="M214.559,14.192a3.459,3.459,0,0,0-2.566-.867,3.147,3.147,0,0,0-2.467.933,3.91,3.91,0,0,0-.966,2.733V27.423h-1.5c-1.233,0-1.866-.6-1.866-1.766V16.991a3.889,3.889,0,0,0-.933-2.733,3.241,3.241,0,0,0-2.466-.933,3.405,3.405,0,0,0-2.566.867,4.079,4.079,0,0,0-.867,2.8V27.423h-1.5c-1.233,0-1.866-.6-1.866-1.766V16.991a7.11,7.11,0,0,1,1.8-5.1,6.456,6.456,0,0,1,5-1.933,6.548,6.548,0,0,1,4.433,1.566,5.117,5.117,0,0,1,.667.633c.233-.233.433-.467.633-.633a7.3,7.3,0,0,1,9.465.367,7.11,7.11,0,0,1,1.8,5.1V27.423h-1.5c-1.233,0-1.866-.6-1.866-1.766V16.991a4.076,4.076,0,0,0-.866-2.8" transform="translate(-86.678 -4.427)" fill="#071945"></path><path id="Path_9" data-name="Path 9" d="M257.413,11.926a6.324,6.324,0,0,1,2.5,5.066V27.423h-1a2.067,2.067,0,0,1-1.9-1.366,7.355,7.355,0,0,1-5.2,1.866,8.5,8.5,0,0,1-5.6-1.966,6.262,6.262,0,0,1-2.5-5.033V16.991a6.324,6.324,0,0,1,2.5-5.066,8.5,8.5,0,0,1,5.6-1.966,8.634,8.634,0,0,1,5.6,1.967m-5.6,1.4a5.221,5.221,0,0,0-3.466,1.2,3.129,3.129,0,0,0-1.267,2.466v3.933a3.178,3.178,0,0,0,1.267,2.467,5.734,5.734,0,0,0,6.932,0,3.128,3.128,0,0,0,1.267-2.467V16.992a3.127,3.127,0,0,0-1.267-2.466,5.216,5.216,0,0,0-3.466-1.2" transform="translate(-108.335 -4.427)" fill="#071945"></path><path id="Path_10" data-name="Path 10" d="M279.715,16.852a5.6,5.6,0,0,1,1.933-4.6,5.715,5.715,0,0,1,3.833-1.333h2.2v1.5c0,1.233-.567,1.866-1.732,1.866h-.467a2.338,2.338,0,0,0-2.4,2.566v11h-1.5c-1.233,0-1.865-.6-1.865-1.766Z" transform="translate(-124.338 -4.854)" fill="#071945"></path><path id="Path_11" data-name="Path 11" d="M298.913,1.766C298.913.6,299.546,0,300.778,0h1.5V13.1h1.233c.667,0,1.3.033,1.7-.633l3.165-5.2a2.323,2.323,0,0,1,2.033-1.2h2.633l-4.033,6.6a5.684,5.684,0,0,1-.666.933,5.034,5.034,0,0,1,2.532,2.8l2.9,6.6H311.61a1.923,1.923,0,0,1-1.966-1.067l-1.832-4.2a1.943,1.943,0,0,0-1.9-1.267h-3.633V23h-1.5c-1.233,0-1.866-.6-1.866-1.766V1.766Z" transform="translate(-132.871 0)" fill="#071945"></path><path id="Path_12" data-name="Path 12" d="M341.072,10.827a7.238,7.238,0,0,1,2.1,1.766,4.951,4.951,0,0,1,.933,2.933,4.928,4.928,0,0,1-.567,2.5,5.062,5.062,0,0,1-1.433,1.6,6.036,6.036,0,0,1-2.033.967,7.635,7.635,0,0,1-2.2.3h-4.066a3.073,3.073,0,0,1-.633-.033,1.322,1.322,0,0,1-.534-.267v1.4a2.128,2.128,0,0,0,1.2,1.9,4.76,4.76,0,0,0,2.3.667,6.79,6.79,0,0,0,2.433-.167,3.537,3.537,0,0,0,2.033-1.1,1.5,1.5,0,0,1,2-.3l1.634.8a5.969,5.969,0,0,1-1.267,1.866,6.9,6.9,0,0,1-2.867,1.733,9.5,9.5,0,0,1-3.3.533,11.785,11.785,0,0,1-2.6-.266,7.679,7.679,0,0,1-2.433-1.033,5.384,5.384,0,0,1-1.9-2.233,6.838,6.838,0,0,1-.6-2.9v-5.5a5.912,5.912,0,0,1,.568-2.466,5.8,5.8,0,0,1,2.833-2.733,8.842,8.842,0,0,1,3.933-.833,10.266,10.266,0,0,1,4.465.866m-1.233,6.3a1.8,1.8,0,0,0,.3-2.966,4.955,4.955,0,0,0-2.466-.833,10.158,10.158,0,0,0-2.567.2,4.027,4.027,0,0,0-1.7.8,2.052,2.052,0,0,0-.767,1.6v1.6h5.566a3.121,3.121,0,0,0,1.633-.4" transform="translate(-146.367 -4.428)" fill="#071945"></path><path id="Path_13" data-name="Path 13" d="M369.185,6.066v1.5c0,1.233-.6,1.866-1.766,1.866h-2.2v8.132a2.518,2.518,0,0,0,.8,2,2.318,2.318,0,0,0,1.566.567v1.533a1.273,1.273,0,0,1-1,1.4,2.289,2.289,0,0,1-1.732-.2A4.865,4.865,0,0,1,362.718,21a6.483,6.483,0,0,1-.866-3.432V1.766c0-1.167.6-1.766,1.833-1.766h1.533V6.066Z" transform="translate(-160.849 0)" fill="#071945"></path><path id="Path_14" data-name="Path 14" d="M381.959,0h1.5V1.6c0,1.167-.633,1.766-1.866,1.766h-1.5v-1.6C380.093.6,380.726,0,381.959,0m-1.866,7.832c0-1.167.633-1.766,1.865-1.766h1.5V23h-1.5c-1.233,0-1.865-.6-1.865-1.766Z" transform="translate(-168.957 0)" fill="#071945"></path><path id="Path_15" data-name="Path 15" d="M395.932,11.86a7.981,7.981,0,0,1,5.333-1.9,8.065,8.065,0,0,1,5.366,1.9A6.234,6.234,0,0,1,409,16.692V27.424h-1.5c-1.233,0-1.866-.6-1.866-1.766V16.692a2.891,2.891,0,0,0-1.167-2.266,5.206,5.206,0,0,0-6.4,0,2.891,2.891,0,0,0-1.166,2.266V27.424h-1.5c-1.233,0-1.866-.6-1.866-1.766V16.692a6.07,6.07,0,0,1,2.4-4.832" transform="translate(-174.932 -4.427)" fill="#071945"></path><path id="Path_16" data-name="Path 16" d="M441.01,11.926a6.324,6.324,0,0,1,2.5,5.066V27.257a5.962,5.962,0,0,1-.634,2.8,6.794,6.794,0,0,1-4.232,3.3,10.376,10.376,0,0,1-2.932.4,13.225,13.225,0,0,1-2.6-.267,2.431,2.431,0,0,1-1.566-.867,1.77,1.77,0,0,1-.067-1.4l.3-1.333a7.948,7.948,0,0,0,2.966.567,10.217,10.217,0,0,0,2.966-.333,2.816,2.816,0,0,0,2.434-2.866v-.667a9,9,0,0,1-10.332-.633,6.262,6.262,0,0,1-2.5-5.033V16.99a6.324,6.324,0,0,1,2.5-5.066,8.5,8.5,0,0,1,5.6-1.966,8.635,8.635,0,0,1,5.6,1.968m-5.6,1.4a5.221,5.221,0,0,0-3.466,1.2,3.126,3.126,0,0,0-1.266,2.466v3.933a3.177,3.177,0,0,0,1.266,2.467,5.734,5.734,0,0,0,6.932,0,3.129,3.129,0,0,0,1.267-2.467V16.992a3.127,3.127,0,0,0-1.267-2.466,5.216,5.216,0,0,0-3.466-1.2" transform="translate(-189.947 -4.426)" fill="#071945"></path></g></g><g id="Group_10" data-name="Group 10" transform="translate(32 24)"><path id="Path_17" data-name="Path 17" d="M13.238,7.559S-1.215,24.242,17.823,31.4c0,0-17.406-.593-17.823-13.519C0,17.879,0,7.246,13.238,7.559Z" transform="translate(0 -0.227)" fill="#0a51cc"></path><path id="Path_18" data-name="Path 18" d="M24.566,17.675S16.261-2.776,1.243,10.941c0,0,8.429-15.241,20.137-9.746C21.38,1.2,30.853,6.022,24.566,17.675Z" transform="translate(-0.037 0)" fill="#0a51cc"></path><path id="Path_19" data-name="Path 19" d="M9.925,23.1S31.751,26.39,27.615,6.475c0,0,8.808,15.026-1.891,22.29C25.725,28.765,16.74,34.452,9.925,23.1Z" transform="translate(-0.298 -0.194)" fill="#0a51cc"></path></g></g></svg> 