<svg width="200" height="auto" viewBox="0 0 250 42" version="1.1" xmlns="http://www.w3.org/2000/svg" xmlns:xlink="http://www.w3.org/1999/xlink"> <title>Logo-Black</title> <g id="Page-1" stroke="none" stroke-width="1" fill="none" fill-rule="evenodd"> <g id="LawRank-Homepage" transform="translate(-95.000000, -50.000000)" fill="#252422"> <g id="Logo-Black" transform="translate(95.000000, 50.000000)"> <polygon id="Path" points="0 1.2 0 40.8 21.6346154 40.8 21.6346154 35.7997097 5.37973056 35.7997097 5.37973056 1.2"></polygon> <ellipse id="Oval" cx="246.995192" cy="39" rx="3.00480769" ry="3"></ellipse> <path d="M40.98778,13.2 C44.6474033,13.2 48.4759322,14.7301848 50.2212909,17.7338809 L50.2212909,13.7667351 L55.2884615,13.7667351 L55.2884615,40.2332649 L50.2212909,40.2332649 L50.2212909,36.1527721 C48.4759322,39.1564682 44.6474033,40.8 40.98778,40.8 C33.7811374,40.8 27.6442308,35.3593429 27.6442308,26.9716632 C27.6442308,18.5273101 33.7811374,13.2 40.98778,13.2 Z M41.4381952,18.2439425 C36.708836,18.2439425 32.8803071,21.6443532 32.8803071,26.9149897 C32.8803071,32.1289528 36.708836,35.7560575 41.4381952,35.7560575 C46.1112525,35.7560575 50.164989,32.5256674 50.164989,26.9149897 C50.164989,21.2476386 45.6608374,18.2439425 41.4381952,18.2439425 Z" id="Combined-Shape"></path> <polygon id="Path" points="94.3092949 40.8 104.567308 13.2 98.8157051 13.2 91.8782051 32.5259101 84.9407051 13.2 79.7227564 13.2 72.7852564 32.5259101 65.8477564 13.2 60.0961538 13.2 70.650641 40.8 75.0384615 40.8 82.3317308 20.5284797 89.8621795 40.8"></polygon> <path d="M127.79517,1.2 C135.901163,1.2 139.199463,7.40725689 139.199463,13.6145138 C139.199463,19.4769231 136.34839,25.1669086 129.136852,25.7991292 L139.423077,40.8 L133.105993,40.8 L123.155188,25.971553 L118.235689,25.971553 L118.235689,40.8 L112.980769,40.8 L112.980769,1.2 L127.79517,1.2 Z M127.62746,6.20029028 L118.235689,6.20029028 L118.235689,20.9712627 L127.403846,20.9712627 C132.099732,20.9712627 133.832737,17.2928882 133.832737,13.6145138 C133.832737,9.99361393 132.099732,6.20029028 127.62746,6.20029028 Z" id="Combined-Shape"></path> <path d="M158.776242,13.2 C162.435865,13.2 166.264394,14.7301848 168.009752,17.7338809 L168.009752,13.7667351 L173.076923,13.7667351 L173.076923,40.2332649 L168.009752,40.2332649 L168.009752,36.1527721 C166.264394,39.1564682 162.435865,40.8 158.776242,40.8 C151.569599,40.8 145.432692,35.3593429 145.432692,26.9716632 C145.432692,18.5273101 151.569599,13.2 158.776242,13.2 Z M159.226657,18.2439425 C154.497298,18.2439425 150.668769,21.6443532 150.668769,26.9149897 C150.668769,32.1289528 154.497298,35.7560575 159.226657,35.7560575 C163.899714,35.7560575 167.953451,32.5256674 167.953451,26.9149897 C167.953451,21.2476386 163.449299,18.2439425 159.226657,18.2439425 Z" id="Combined-Shape"></path> <path d="M188.200401,26.2188679 C188.200401,20.490566 192.195282,18.3496855 196.190163,18.3496855 C200.063987,18.3496855 202.424599,21.0113208 202.424599,25.5245283 L202.424599,40.8 L207.932692,40.8 L207.932692,25.1773585 C207.932692,17.5974843 204.058868,13.2 197.037562,13.2 C193.950609,13.2 189.895199,14.5886792 188.200401,17.8289308 L188.200401,13.7786164 L182.692308,13.7786164 L182.692308,40.8 L188.200401,40.8 L188.200401,26.2188679 Z" id="Path"></path> <polygon id="Path" points="220.514525 27.8979196 233.224223 40.8 240.384615 40.8 225.58647 25.8041609 237.520458 14.3733703 233.224223 11.2866817 220.514525 23.5972261 220.514525 0 215.144231 0 215.144231 40.8 220.514525 40.8"></polygon> </g> </g> </g> </svg>