<svg width="50" height="auto" viewBox="0 0 26 30" fill="none" xmlns="http://www.w3.org/2000/svg">
	<path d="M25.5259 2.72277V23.1813H23.5595V2.72277C23.5595 2.19334 23.2948 1.96645 22.8032 1.96645C22.6519 1.96645 22.2359 1.96644 21.9712 2.98748L15.4668 27.4167C15.0508 28.9672 14.0298 29.8748 12.7819 29.8748C11.4961 29.8748 10.5129 28.9294 10.0969 27.4167L3.59254 2.98748C3.29001 1.96644 2.87403 1.96645 2.76058 1.96645C2.23115 1.96645 1.96645 2.23116 1.96645 2.72277V23.1813H0V2.72277C0 1.13449 1.13449 0 2.72277 0C3.47909 0 4.84046 0.340346 5.44552 2.45805L11.9877 26.9251C12.0634 27.152 12.2903 27.9462 12.7819 27.9462C13.2735 27.9462 13.5382 27.152 13.576 26.9251L20.0804 2.49587C20.6854 0.340348 22.0468 0 22.8032 0C24.3914 0 25.5259 1.09667 25.5259 2.72277Z" fill="#401F16"></path>
</svg>