<svg width="200" height="auto" viewBox="0 0 236 44" fill="none" xmlns="http://www.w3.org/2000/svg">
<path d="M32.7338 0.769531H43.0137L27.9626 43.1313H15.4516L0.649414 0.769531H11.4272C11.4272 0.769531 21.6426 33.1022 21.7071 33.1248L32.7292 0.769531H32.7338Z" fill="#252422"></path>
<path d="M55.7598 43.1313H45.5398V0.769531H55.7598V43.1313Z" fill="#252422"></path>
<path d="M125.442 8.35463H113.682V43.1223H103.462V8.35463H91.9377V0.769531H125.442V8.35463Z" fill="#252422"></path>
<path d="M135.574 25.3228L141.341 9.20394H141.544L147.311 25.3228H135.574ZM148.648 0.769531H134.606L118.795 43.1313H129.347L132.891 33.048H149.999L153.562 43.1313H164.584L148.643 0.769531H148.648Z" fill="#252422"></path>
<path d="M235.022 0.769531V8.35463H217.537V17.8236H233.782V25.3454H217.537V35.483H235.455V43.1223H207.4V0.769531H235.022Z" fill="#252422"></path>
<path d="M71.5853 11.7607C71.5853 13.6626 73.1342 14.7469 77.0894 16.2016C78.8504 16.8476 81.7592 17.9228 83.2897 18.483C89.2916 20.6921 92.7398 24.7399 92.7398 30.8884C92.7398 38.7626 86.2123 43.8946 75.6834 43.8946C69.1098 43.8946 63.9561 42.6613 62.8174 42.3767V33.7977C63.933 34.2495 68.0819 35.9391 74.3973 35.9391C80.1642 35.9391 82.4876 34.2766 82.4876 31.3717C82.4876 29.2575 80.8741 27.7938 76.9419 26.3617C75.96 26.0048 73.2218 25.0154 71.9495 24.5411C67.0308 22.7069 61.1855 19.7614 61.1855 12.4474C61.1855 5.13337 67.1968 0.00585938 78.099 0.00585938C83.9304 0.00585938 88.0147 0.814515 88.8261 0.981668V9.28506C86.996 8.78361 83.2021 7.97947 79.4727 7.97947C73.4615 7.97947 71.5807 9.64196 71.5807 11.7607H71.5853Z" fill="#252422"></path>
<path d="M201.97 17.8237H181.885L184.692 25.3501H191.934V35.691C191.625 35.7452 190.5 35.9394 188.892 35.9394C179.372 35.9394 173.292 30.202 173.292 21.9529C173.292 14.3723 178.704 7.97984 189.555 7.97984C195.59 7.97984 200.914 9.4571 201.827 9.71461V1.40669C200.73 1.12208 196.636 0.0107422 189.555 0.0107422C171.914 0.0107422 162.874 8.91498 162.874 21.9529C162.874 36.5493 173.836 43.895 189.03 43.895C196.336 43.895 200.651 42.7746 201.974 42.4629V17.8237H201.97Z" fill="#252422"></path>
</svg>